<svg xmlns="http://www.w3.org/2000/svg" version="1.1" xmlns:xlink="http://www.w3.org/1999/xlink" xmlns:svgjs="http://svgjs.com/svgjs" width="1440" height="560" preserveAspectRatio="none" viewBox="0 0 1440 560"><g mask="url(&quot;#SvgjsMask1029&quot;)" fill="none"><rect width="1440" height="560" x="0" y="0" fill="rgba(248, 249, 252, 1)"></rect><path d="M0,578.778C117.274,572.591,246.447,600.437,342.016,532.187C436.761,464.525,450.27,333.519,494.329,225.753C536.427,122.783,590.95,25.703,594.542,-85.482C598.607,-211.335,595.911,-349.806,516.067,-447.174C435.765,-545.1,296.448,-560.12,175.239,-596.811C52.983,-633.819,-70.596,-693.482,-194.456,-662.257C-319.899,-630.633,-434.613,-542.998,-494.038,-428.086C-549.718,-320.417,-482.999,-191.905,-499.773,-71.857C-516.447,47.473,-616.2,152.224,-591.604,270.176C-565.57,395.02,-479.094,510.561,-366.023,569.543C-255.577,627.155,-124.396,585.341,0,578.778" fill="#e7eaf5"></path><path d="M1440 958.921C1523.643 956.3910000000001 1607.719 973.0029999999999 1685.3600000000001 941.788 1772.8519999999999 906.613 1866.213 858.307 1904.549 772.153 1942.825 686.135 1915.972 584.637 1883.63 496.216 1855.277 418.702 1787.56 368.048 1733.824 305.4 1679.7640000000001 242.375 1638.567 169.43200000000002 1567.088 127.178 1481.559 76.61900000000003 1384.948 20.789999999999964 1287.831 41.759000000000015 1189.759 62.934000000000026 1114.762 148.08300000000003 1065.4850000000001 235.481 1020.717 314.88300000000004 1026.098 409.793 1028.9569999999999 500.901 1031.402 578.801 1055.6 650.288 1080.819 724.033 1108.903 806.155 1112.272 909.4259999999999 1184.91 956.928 1257.547 1004.429 1353.25 961.5450000000001 1440 958.921" fill="#ffffff"></path></g><defs><mask id="SvgjsMask1029"><rect width="1440" height="560" fill="#ffffff"></rect></mask></defs></svg>