<svg xmlns="http://www.w3.org/2000/svg" version="1.1" xmlns:xlink="http://www.w3.org/1999/xlink" xmlns:svgjs="http://svgjs.com/svgjs" width="1440" height="560" preserveAspectRatio="none" viewBox="0 0 1440 560"><g mask="url(&quot;#SvgjsMask1018&quot;)" fill="none"><path d="M495.308,277.1C527.027,275.446,554.92,256.98,570.143,229.104C584.736,202.381,581.904,171.015,568.042,143.905C552.586,113.677,529.227,84.2,495.308,82.75C459.47,81.218,428.915,106.146,410.943,137.19C392.93,168.305,387.05,206.893,405.615,237.682C423.689,267.656,460.353,278.922,495.308,277.1" fill="rgba(0, 191, 166, 0.15)" class="triangle-float2"></path><path d="M352.607,265.283C390.855,263.689,424.47,241.42,443.173,208.019C461.436,175.405,460.658,136.476,443.259,103.393C424.456,67.64,392.938,38.103,352.607,35.813C308.416,33.304,264.394,53.692,242.177,91.974C219.884,130.388,224.078,178.701,247.945,216.157C270.142,250.992,311.337,267.003,352.607,265.283" fill="rgba(0, 191, 166, 0.15)" class="triangle-float2"></path><path d="M1355.587,714.344C1412.238,711.455,1443.29,654.916,1471.232,605.55C1498.564,557.261,1527.58,503.403,1503.192,453.563C1476.496,399.008,1416.29,367.216,1355.587,369.221C1297.921,371.125,1251.909,412.311,1223.955,462.784C1196.981,511.487,1191.723,569.158,1217.535,618.487C1245.374,671.689,1295.62,717.402,1355.587,714.344" fill="rgba(0, 191, 166, 0.15)" class="triangle-float1"></path><path d="M1041.191,576.635C1096.996,578.21,1147.074,541.002,1171.896,490.997C1194.359,445.744,1177.699,395.047,1153.283,350.818C1127.735,304.539,1094.03,255.809,1041.191,254.23C986.48,252.595,941.959,295.111,916.863,343.754C893.876,388.309,899.057,439.737,922.668,483.964C947.982,531.381,987.461,575.119,1041.191,576.635" fill="rgba(0, 191, 166, 0.15)" class="triangle-float1"></path><path d="M1325.091,646.614C1377.701,649.483,1431.491,631.563,1460.128,587.337C1491.208,539.339,1498.909,474.895,1467.018,427.432C1437.579,383.619,1377.811,383.754,1325.091,386.365C1278.295,388.682,1229.57,400.128,1205.587,440.378C1181.131,481.421,1189.407,532.543,1213.361,573.881C1237.241,615.092,1277.532,644.021,1325.091,646.614" fill="rgba(0, 191, 166, 0.15)" class="triangle-float3"></path><path d="M452.497,569.35C510.857,572.921,564.777,536.318,592.718,484.958C619.512,435.707,611.551,376.914,583.643,328.285C555.591,279.407,508.77,237.571,452.497,240.632C399.675,243.506,367.421,293.923,343.939,341.326C323.608,382.369,319.463,428.087,339.152,469.442C362.356,518.18,398.618,566.053,452.497,569.35" fill="rgba(0, 191, 166, 0.15)" class="triangle-float1"></path><path d="M807.291,581.475C831.767,581.209,851.261,563.636,863.654,542.528C876.237,521.096,882.451,495.273,870.783,473.329C858.474,450.179,833.51,436.592,807.291,436.524C780.954,436.456,755.844,449.882,743.229,473.001C731.08,495.265,735.869,521.937,748.766,543.776C761.413,565.191,782.421,581.745,807.291,581.475" fill="rgba(0, 191, 166, 0.15)" class="triangle-float2"></path><path d="M72.5,527.346C90.005,527.021,107.459,519.68,115.717,504.242C123.606,489.494,118.76,471.872,109.694,457.817C101.463,445.057,87.684,437.427,72.5,437.245C56.97,437.058,42.383,444.009,33.726,456.904C23.861,471.599,17.875,490.395,26.41,505.9C35.168,521.811,54.341,527.683,72.5,527.346" fill="rgba(0, 191, 166, 0.15)" class="triangle-float1"></path><path d="M803.798,431.836C839.374,433.657,877.348,422.084,894.767,391.01C911.91,360.427,899.834,323.498,881.162,293.824C863.9,266.391,836.208,246.044,803.798,246.44C771.999,246.828,745.176,267.927,729.641,295.675C714.491,322.735,712.813,355.221,727.646,382.456C743.155,410.932,771.414,430.179,803.798,431.836" fill="rgba(0, 191, 166, 0.15)" class="triangle-float3"></path><path d="M1302.43,57.365C1317.966,57.175,1333.386,51.708,1341.631,38.539C1350.377,24.571,1351.844,6.394,1343.083,-7.565C1334.76,-20.826,1318.076,-24.489,1302.43,-23.922C1287.922,-23.397,1274.442,-16.996,1266.576,-4.794C1257.942,8.598,1253.571,25.717,1261.532,39.519C1269.497,53.328,1286.489,57.56,1302.43,57.365" fill="rgba(0, 191, 166, 0.15)" class="triangle-float1"></path><path d="M1098.622,480.4C1142.277,479.701,1176.421,447.554,1198.393,409.825C1220.541,371.794,1232.445,325.771,1211.079,287.295C1189.201,247.896,1143.687,230.478,1098.622,230.154C1052.907,229.825,1006.156,246.048,983.325,285.655C960.517,325.223,969.893,373.811,993.16,413.111C1015.93,451.57,1053.934,481.115,1098.622,480.4" fill="rgba(0, 191, 166, 0.15)" class="triangle-float2"></path><path d="M349.04,217.718C382.937,218.889,415.74,202.567,432.97,173.352C450.464,143.69,449.95,106.387,432.051,76.968C414.811,48.632,382.208,35.316,349.04,35.401C316.039,35.486,282.934,48.625,266.766,77.394C250.869,105.681,258.178,139.887,274.59,167.879C290.779,195.491,317.051,216.613,349.04,217.718" fill="rgba(0, 191, 166, 0.15)" class="triangle-float1"></path><path d="M222.025,344.952C279.142,346.769,346.085,345.546,374.247,295.821C402.207,246.453,365.662,190.52,337.328,141.365C308.942,92.12,278.676,36.377,222.025,31.742C159.123,26.596,98.411,63.73,68.647,119.383C40.32,172.35,51.926,236.972,85.7,286.643C115.486,330.448,169.08,343.268,222.025,344.952" fill="rgba(0, 191, 166, 0.15)" class="triangle-float2"></path></g><defs><mask id="SvgjsMask1018"><rect width="1440" height="560" fill="#ffffff"></rect></mask></defs></svg>