<svg xmlns="http://www.w3.org/2000/svg" version="1.1" xmlns:xlink="http://www.w3.org/1999/xlink" xmlns:svgjs="http://svgjs.com/svgjs" width="1440" height="560" preserveAspectRatio="none" viewBox="0 0 1440 560"><g mask="url(&quot;#SvgjsMask1071&quot;)" fill="none"><path d="M26.75 -1.55L91.7 35.95L91.7 110.95L26.75 148.45L-38.2 110.95L-38.2 35.95zM91.7 335.95L156.66 373.45L156.66 448.45L91.7 485.95L26.75 448.45L26.75 373.45zM91.7 560.95L156.66 598.45L156.66 673.45L91.7 710.95L26.75 673.45L26.75 598.45zM156.66 -1.55L221.61 35.95L221.61 110.95L156.66 148.45L91.7 110.95L91.7 35.95zM156.66 223.45L221.61 260.95L221.61 335.95L156.66 373.45L91.7 335.95L91.7 260.95zM221.61 335.95L286.56 373.45L286.56 448.45L221.61 485.95L156.66 448.45L156.66 373.45zM156.66 448.45L221.61 485.95L221.61 560.95L156.66 598.45L91.7 560.95L91.7 485.95zM286.56 -1.55L351.52 35.95L351.52 110.95L286.56 148.45L221.61 110.95L221.61 35.95zM351.52 110.95L416.47 148.45L416.47 223.45L351.52 260.95L286.56 223.45L286.56 148.45zM286.56 223.45L351.52 260.95L351.52 335.95L286.56 373.45L221.61 335.95L221.61 260.95zM351.52 335.95L416.47 373.45L416.47 448.45L351.52 485.95L286.56 448.45L286.56 373.45zM286.56 448.45L351.52 485.95L351.52 560.95L286.56 598.45L221.61 560.95L221.61 485.95zM351.52 560.95L416.47 598.45L416.47 673.45L351.52 710.95L286.56 673.45L286.56 598.45zM416.47 -1.55L481.43 35.95L481.43 110.95L416.47 148.45L351.52 110.95L351.52 35.95zM481.43 335.95L546.38 373.45L546.38 448.45L481.43 485.95L416.47 448.45L416.47 373.45zM416.47 448.45L481.43 485.95L481.43 560.95L416.47 598.45L351.52 560.95L351.52 485.95zM546.38 448.45L611.33 485.95L611.33 560.95L546.38 598.45L481.43 560.95L481.43 485.95zM611.33 560.95L676.29 598.45L676.29 673.45L611.33 710.95L546.38 673.45L546.38 598.45zM676.29 -1.55L741.24 35.95L741.24 110.95L676.29 148.45L611.33 110.95L611.33 35.95zM676.29 448.45L741.24 485.95L741.24 560.95L676.29 598.45L611.33 560.95L611.33 485.95zM741.24 560.95L806.2 598.45L806.2 673.45L741.24 710.95L676.29 673.45L676.29 598.45zM806.19 223.45L871.15 260.95L871.15 335.95L806.19 373.45L741.24 335.95L741.24 260.95zM871.15 335.95L936.1 373.45L936.1 448.45L871.15 485.95L806.19 448.45L806.19 373.45zM871.15 560.95L936.1 598.45L936.1 673.45L871.15 710.95L806.19 673.45L806.19 598.45zM936.1 -1.55L1001.06 35.95L1001.06 110.95L936.1 148.45L871.15 110.95L871.15 35.95zM1001.06 335.95L1066.01 373.45L1066.01 448.45L1001.06 485.95L936.1 448.45L936.1 373.45zM1066.01 -1.55L1130.96 35.95L1130.96 110.95L1066.01 148.45L1001.06 110.95L1001.06 35.95zM1130.96 110.95L1195.92 148.45L1195.92 223.45L1130.96 260.95L1066.01 223.45L1066.01 148.45zM1130.96 560.95L1195.92 598.45L1195.92 673.45L1130.96 710.95L1066.01 673.45L1066.01 598.45zM1260.87 335.95L1325.82 373.45L1325.82 448.45L1260.87 485.95L1195.92 448.45L1195.92 373.45zM1195.92 448.45L1260.87 485.95L1260.87 560.95L1195.92 598.45L1130.96 560.95L1130.96 485.95zM1260.87 560.95L1325.82 598.45L1325.82 673.45L1260.87 710.95L1195.92 673.45L1195.92 598.45zM1325.83 -1.55L1390.78 35.95L1390.78 110.95L1325.83 148.45L1260.87 110.95L1260.87 35.95zM1390.78 335.95L1455.73 373.45L1455.73 448.45L1390.78 485.95L1325.83 448.45L1325.83 373.45zM1325.83 448.45L1390.78 485.95L1390.78 560.95L1325.83 598.45L1260.87 560.95L1260.87 485.95zM1390.78 560.95L1455.73 598.45L1455.73 673.45L1390.78 710.95L1325.83 673.45L1325.83 598.45zM1455.73 -1.55L1520.69 35.95L1520.69 110.95L1455.73 148.45L1390.78 110.95L1390.78 35.95zM1520.69 335.95L1585.64 373.45L1585.64 448.45L1520.69 485.95L1455.73 448.45L1455.73 373.45zM1520.69 560.95L1585.64 598.45L1585.64 673.45L1520.69 710.95L1455.73 673.45L1455.73 598.45z" stroke="rgba(158, 160, 166, 1)" stroke-width="2"></path><path d="M65.66 238.22L96.84 256.22L96.84 292.22L65.66 310.22L34.48 292.22L34.48 256.22zM65.66 346.22L96.84 364.22L96.84 400.22L65.66 418.22L34.48 400.22L34.48 364.22zM96.84 508.22L128.01 526.22L128.01 562.22L96.84 580.22L65.66 562.22L65.66 526.22zM159.19 -31.78L190.37 -13.78L190.37 22.22L159.19 40.22L128.01 22.22L128.01 -13.78zM190.37 22.22L221.55 40.22L221.55 76.22L190.37 94.22L159.19 76.22L159.19 40.22zM190.37 238.22L221.55 256.22L221.55 292.22L190.37 310.22L159.19 292.22L159.19 256.22zM159.19 400.22L190.37 418.22L190.37 454.22L159.19 472.22L128.01 454.22L128.01 418.22zM221.55 -31.78L252.72 -13.78L252.72 22.22L221.55 40.22L190.37 22.22L190.37 -13.78zM252.72 22.22L283.9 40.22L283.9 76.22L252.72 94.22L221.55 76.22L221.55 40.22zM252.72 130.22L283.9 148.22L283.9 184.22L252.72 202.22L221.55 184.22L221.55 148.22zM315.08 22.22L346.26 40.22L346.26 76.22L315.08 94.22L283.9 76.22L283.9 40.22zM283.9 292.22L315.08 310.22L315.08 346.22L283.9 364.22L252.72 346.22L252.72 310.22zM315.08 346.22L346.26 364.22L346.26 400.22L315.08 418.22L283.9 400.22L283.9 364.22zM315.08 454.22L346.26 472.22L346.26 508.22L315.08 526.22L283.9 508.22L283.9 472.22zM346.26 400.22L377.44 418.22L377.44 454.22L346.26 472.22L315.08 454.22L315.08 418.22zM439.79 22.22L470.97 40.22L470.97 76.22L439.79 94.22L408.61 76.22L408.61 40.22zM439.79 346.22L470.97 364.22L470.97 400.22L439.79 418.22L408.61 400.22L408.61 364.22zM408.61 400.22L439.79 418.22L439.79 454.22L408.61 472.22L377.44 454.22L377.44 418.22zM439.79 454.22L470.97 472.22L470.97 508.22L439.79 526.22L408.61 508.22L408.61 472.22zM502.15 22.22L533.32 40.22L533.32 76.22L502.15 94.22L470.97 76.22L470.97 40.22zM470.97 76.22L502.15 94.22L502.15 130.22L470.97 148.22L439.79 130.22L439.79 94.22zM502.15 130.22L533.32 148.22L533.32 184.22L502.15 202.22L470.97 184.22L470.97 148.22zM470.97 292.22L502.15 310.22L502.15 346.22L470.97 364.22L439.79 346.22L439.79 310.22zM470.97 400.22L502.15 418.22L502.15 454.22L470.97 472.22L439.79 454.22L439.79 418.22zM502.15 454.22L533.32 472.22L533.32 508.22L502.15 526.22L470.97 508.22L470.97 472.22zM533.32 -31.78L564.5 -13.78L564.5 22.22L533.32 40.22L502.15 22.22L502.15 -13.78zM533.32 184.22L564.5 202.22L564.5 238.22L533.32 256.22L502.15 238.22L502.15 202.22zM564.5 238.22L595.68 256.22L595.68 292.22L564.5 310.22L533.32 292.22L533.32 256.22zM564.5 346.22L595.68 364.22L595.68 400.22L564.5 418.22L533.32 400.22L533.32 364.22zM595.68 292.22L626.86 310.22L626.86 346.22L595.68 364.22L564.5 346.22L564.5 310.22zM595.68 508.22L626.86 526.22L626.86 562.22L595.68 580.22L564.5 562.22L564.5 526.22zM658.04 -31.78L689.21 -13.78L689.21 22.22L658.04 40.22L626.86 22.22L626.86 -13.78zM689.21 22.22L720.39 40.22L720.39 76.22L689.21 94.22L658.04 76.22L658.04 40.22zM658.04 76.22L689.21 94.22L689.21 130.22L658.04 148.22L626.86 130.22L626.86 94.22zM689.21 346.22L720.39 364.22L720.39 400.22L689.21 418.22L658.04 400.22L658.04 364.22zM751.57 22.22L782.75 40.22L782.75 76.22L751.57 94.22L720.39 76.22L720.39 40.22zM720.39 184.22L751.57 202.22L751.57 238.22L720.39 256.22L689.21 238.22L689.21 202.22zM751.57 238.22L782.75 256.22L782.75 292.22L751.57 310.22L720.39 292.22L720.39 256.22zM720.39 292.22L751.57 310.22L751.57 346.22L720.39 364.22L689.21 346.22L689.21 310.22zM751.57 346.22L782.75 364.22L782.75 400.22L751.57 418.22L720.39 400.22L720.39 364.22zM720.39 508.22L751.57 526.22L751.57 562.22L720.39 580.22L689.21 562.22L689.21 526.22zM782.75 76.22L813.93 94.22L813.93 130.22L782.75 148.22L751.57 130.22L751.57 94.22zM782.75 508.22L813.93 526.22L813.93 562.22L782.75 580.22L751.57 562.22L751.57 526.22zM845.1 76.22L876.28 94.22L876.28 130.22L845.1 148.22L813.92 130.22L813.92 94.22zM876.28 238.22L907.46 256.22L907.46 292.22L876.28 310.22L845.1 292.22L845.1 256.22zM845.1 292.22L876.28 310.22L876.28 346.22L845.1 364.22L813.92 346.22L813.92 310.22zM876.28 346.22L907.46 364.22L907.46 400.22L876.28 418.22L845.1 400.22L845.1 364.22zM845.1 508.22L876.28 526.22L876.28 562.22L845.1 580.22L813.92 562.22L813.92 526.22zM907.46 76.22L938.64 94.22L938.64 130.22L907.46 148.22L876.28 130.22L876.28 94.22zM938.64 238.22L969.81 256.22L969.81 292.22L938.64 310.22L907.46 292.22L907.46 256.22zM907.46 400.22L938.64 418.22L938.64 454.22L907.46 472.22L876.28 454.22L876.28 418.22zM938.64 454.22L969.81 472.22L969.81 508.22L938.64 526.22L907.46 508.22L907.46 472.22zM907.46 508.22L938.64 526.22L938.64 562.22L907.46 580.22L876.28 562.22L876.28 526.22zM969.81 76.22L1000.99 94.22L1000.99 130.22L969.81 148.22L938.64 130.22L938.64 94.22zM1000.99 346.22L1032.17 364.22L1032.17 400.22L1000.99 418.22L969.81 400.22L969.81 364.22zM1000.99 454.22L1032.17 472.22L1032.17 508.22L1000.99 526.22L969.81 508.22L969.81 472.22zM1032.17 -31.78L1063.35 -13.78L1063.35 22.22L1032.17 40.22L1000.99 22.22L1000.99 -13.78zM1032.17 76.22L1063.35 94.22L1063.35 130.22L1032.17 148.22L1000.99 130.22L1000.99 94.22zM1063.35 238.22L1094.53 256.22L1094.53 292.22L1063.35 310.22L1032.17 292.22L1032.17 256.22zM1032.17 400.22L1063.35 418.22L1063.35 454.22L1032.17 472.22L1000.99 454.22L1000.99 418.22zM1032.17 508.22L1063.35 526.22L1063.35 562.22L1032.17 580.22L1000.99 562.22L1000.99 526.22zM1094.53 76.22L1125.7 94.22L1125.7 130.22L1094.53 148.22L1063.35 130.22L1063.35 94.22zM1094.53 184.22L1125.7 202.22L1125.7 238.22L1094.53 256.22L1063.35 238.22L1063.35 202.22zM1125.7 346.22L1156.88 364.22L1156.88 400.22L1125.7 418.22L1094.53 400.22L1094.53 364.22zM1156.88 184.22L1188.06 202.22L1188.06 238.22L1156.88 256.22L1125.7 238.22L1125.7 202.22zM1188.06 238.22L1219.24 256.22L1219.24 292.22L1188.06 310.22L1156.88 292.22L1156.88 256.22zM1156.88 400.22L1188.06 418.22L1188.06 454.22L1156.88 472.22L1125.7 454.22L1125.7 418.22zM1156.88 508.22L1188.06 526.22L1188.06 562.22L1156.88 580.22L1125.7 562.22L1125.7 526.22zM1219.24 76.22L1250.41 94.22L1250.41 130.22L1219.24 148.22L1188.06 130.22L1188.06 94.22zM1250.41 130.22L1281.59 148.22L1281.59 184.22L1250.41 202.22L1219.24 184.22L1219.24 148.22zM1250.41 346.22L1281.59 364.22L1281.59 400.22L1250.41 418.22L1219.24 400.22L1219.24 364.22zM1219.24 400.22L1250.41 418.22L1250.41 454.22L1219.24 472.22L1188.06 454.22L1188.06 418.22zM1219.24 508.22L1250.41 526.22L1250.41 562.22L1219.24 580.22L1188.06 562.22L1188.06 526.22zM1281.59 -31.78L1312.77 -13.78L1312.77 22.22L1281.59 40.22L1250.41 22.22L1250.41 -13.78zM1312.77 130.22L1343.95 148.22L1343.95 184.22L1312.77 202.22L1281.59 184.22L1281.59 148.22zM1281.59 400.22L1312.77 418.22L1312.77 454.22L1281.59 472.22L1250.41 454.22L1250.41 418.22zM1375.13 22.22L1406.3 40.22L1406.3 76.22L1375.13 94.22L1343.95 76.22L1343.95 40.22zM1375.13 238.22L1406.3 256.22L1406.3 292.22L1375.13 310.22L1343.95 292.22L1343.95 256.22zM1406.3 -31.78L1437.48 -13.78L1437.48 22.22L1406.3 40.22L1375.13 22.22L1375.13 -13.78zM1406.3 76.22L1437.48 94.22L1437.48 130.22L1406.3 148.22L1375.13 130.22L1375.13 94.22zM1437.48 346.22L1468.66 364.22L1468.66 400.22L1437.48 418.22L1406.3 400.22L1406.3 364.22zM1406.3 508.22L1437.48 526.22L1437.48 562.22L1406.3 580.22L1375.13 562.22L1375.13 526.22zM1499.84 22.22L1531.01 40.22L1531.01 76.22L1499.84 94.22L1468.66 76.22L1468.66 40.22zM1468.66 76.22L1499.84 94.22L1499.84 130.22L1468.66 148.22L1437.48 130.22L1437.48 94.22zM1499.84 130.22L1531.01 148.22L1531.01 184.22L1499.84 202.22L1468.66 184.22L1468.66 148.22zM1499.84 238.22L1531.01 256.22L1531.01 292.22L1499.84 310.22L1468.66 292.22L1468.66 256.22zM1468.66 292.22L1499.84 310.22L1499.84 346.22L1468.66 364.22L1437.48 346.22L1437.48 310.22zM1468.66 400.22L1499.84 418.22L1499.84 454.22L1468.66 472.22L1437.48 454.22L1437.48 418.22z" stroke="rgba(0, 0, 0, 0.46)" stroke-width="2"></path></g><defs><mask id="SvgjsMask1071"><rect width="1440" height="560" fill="#ffffff"></rect></mask></defs></svg>