<svg xmlns="http://www.w3.org/2000/svg" version="1.1" xmlns:xlink="http://www.w3.org/1999/xlink" xmlns:svgjs="http://svgjs.com/svgjs" width="1440" height="560" preserveAspectRatio="none" viewBox="0 0 1440 560"><g mask="url(&quot;#SvgjsMask1016&quot;)" fill="none"><path d="M-64.91 385.25L-64.91 385.25" stroke="rgba(0, 191, 166, 0.43)" stroke-width="1.5"></path><path d="M-64.91 385.25L45.03 372.44" stroke="rgba(0, 191, 166, 0.43)" stroke-width="1.5"></path><path d="M-64.91 385.25L54.68 550.79" stroke="rgba(0, 191, 166, 0.43)" stroke-width="1.5"></path><path d="M-64.91 385.25L-86.63 671.61" stroke="rgba(0, 191, 166, 0.43)" stroke-width="1.5"></path><path d="M-64.91 385.25L224.1 390.21" stroke="rgba(0, 191, 166, 0.43)" stroke-width="1.5"></path><path d="M-64.91 385.25L224.5 510.84" stroke="rgba(0, 191, 166, 0.43)" stroke-width="1.5"></path><path d="M-86.63 671.61L-86.63 671.61" stroke="rgba(0, 191, 166, 0.43)" stroke-width="1.5"></path><path d="M-86.63 671.61L54.68 550.79" stroke="rgba(0, 191, 166, 0.43)" stroke-width="1.5"></path><path d="M-86.63 671.61L101.08 656.84" stroke="rgba(0, 191, 166, 0.43)" stroke-width="1.5"></path><path d="M-86.63 671.61L45.03 372.44" stroke="rgba(0, 191, 166, 0.43)" stroke-width="1.5"></path><path d="M-86.63 671.61L259.42 657.97" stroke="rgba(0, 191, 166, 0.43)" stroke-width="1.5"></path><path d="M-86.63 671.61L224.5 510.84" stroke="rgba(0, 191, 166, 0.43)" stroke-width="1.5"></path><path d="M45.03 372.44L45.03 372.44" stroke="rgba(0, 191, 166, 0.43)" stroke-width="1.5"></path><path d="M45.03 372.44L54.68 550.79" stroke="rgba(0, 191, 166, 0.43)" stroke-width="1.5"></path><path d="M45.03 372.44L224.1 390.21" stroke="rgba(0, 191, 166, 0.43)" stroke-width="1.5"></path><path d="M45.03 372.44L224.5 510.84" stroke="rgba(0, 191, 166, 0.43)" stroke-width="1.5"></path><path d="M45.03 372.44L101.08 656.84" stroke="rgba(0, 191, 166, 0.43)" stroke-width="1.5"></path><path d="M54.68 550.79L54.68 550.79" stroke="rgba(0, 191, 166, 0.43)" stroke-width="1.5"></path><path d="M54.68 550.79L101.08 656.84" stroke="rgba(0, 191, 166, 0.43)" stroke-width="1.5"></path><path d="M101.08 656.84L101.08 656.84" stroke="rgba(0, 191, 166, 0.43)" stroke-width="1.5"></path><path d="M101.08 656.84L259.42 657.97" stroke="rgba(0, 191, 166, 0.43)" stroke-width="1.5"></path><path d="M101.08 656.84L224.5 510.84" stroke="rgba(0, 191, 166, 0.43)" stroke-width="1.5"></path><path d="M224.1 390.21L224.1 390.21" stroke="rgba(0, 191, 166, 0.43)" stroke-width="1.5"></path><path d="M224.1 390.21L224.5 510.84" stroke="rgba(0, 191, 166, 0.43)" stroke-width="1.5"></path><path d="M224.1 390.21L389.04 377.86" stroke="rgba(0, 191, 166, 0.43)" stroke-width="1.5"></path><path d="M224.1 390.21L358.79 514.32" stroke="rgba(0, 191, 166, 0.43)" stroke-width="1.5"></path><path d="M224.5 510.84L224.5 510.84" stroke="rgba(0, 191, 166, 0.43)" stroke-width="1.5"></path><path d="M224.5 510.84L358.79 514.32" stroke="rgba(0, 191, 166, 0.43)" stroke-width="1.5"></path><path d="M224.5 510.84L259.42 657.97" stroke="rgba(0, 191, 166, 0.43)" stroke-width="1.5"></path><path d="M259.42 657.97L259.42 657.97" stroke="rgba(0, 191, 166, 0.43)" stroke-width="1.5"></path><path d="M259.42 657.97L394.06 688.43" stroke="rgba(0, 191, 166, 0.43)" stroke-width="1.5"></path><path d="M389.04 377.86L389.04 377.86" stroke="rgba(0, 191, 166, 0.43)" stroke-width="1.5"></path><path d="M389.04 377.86L517.61 344.23" stroke="rgba(0, 191, 166, 0.43)" stroke-width="1.5"></path><path d="M389.04 377.86L358.79 514.32" stroke="rgba(0, 191, 166, 0.43)" stroke-width="1.5"></path><path d="M358.79 514.32L358.79 514.32" stroke="rgba(0, 191, 166, 0.43)" stroke-width="1.5"></path><path d="M358.79 514.32L259.42 657.97" stroke="rgba(0, 191, 166, 0.43)" stroke-width="1.5"></path><path d="M358.79 514.32L394.06 688.43" stroke="rgba(0, 191, 166, 0.43)" stroke-width="1.5"></path><path d="M394.06 688.43L394.06 688.43" stroke="rgba(0, 191, 166, 0.43)" stroke-width="1.5"></path><path d="M394.06 688.43L499.58 646.05" stroke="rgba(0, 191, 166, 0.43)" stroke-width="1.5"></path><path d="M394.06 688.43L545.65 522.75" stroke="rgba(0, 191, 166, 0.43)" stroke-width="1.5"></path><path d="M394.06 688.43L224.5 510.84" stroke="rgba(0, 191, 166, 0.43)" stroke-width="1.5"></path><path d="M394.06 688.43L101.08 656.84" stroke="rgba(0, 191, 166, 0.43)" stroke-width="1.5"></path><path d="M517.61 344.23L517.61 344.23" stroke="rgba(0, 191, 166, 0.43)" stroke-width="1.5"></path><path d="M517.61 344.23L655.77 355.2" stroke="rgba(0, 191, 166, 0.43)" stroke-width="1.5"></path><path d="M517.61 344.23L648.67 238.31" stroke="rgba(0, 191, 166, 0.43)" stroke-width="1.5"></path><path d="M545.65 522.75L545.65 522.75" stroke="rgba(0, 191, 166, 0.43)" stroke-width="1.5"></path><path d="M545.65 522.75L499.58 646.05" stroke="rgba(0, 191, 166, 0.43)" stroke-width="1.5"></path><path d="M545.65 522.75L709.27 489.7" stroke="rgba(0, 191, 166, 0.43)" stroke-width="1.5"></path><path d="M499.58 646.05L499.58 646.05" stroke="rgba(0, 191, 166, 0.43)" stroke-width="1.5"></path><path d="M499.58 646.05L358.79 514.32" stroke="rgba(0, 191, 166, 0.43)" stroke-width="1.5"></path><path d="M499.58 646.05L706.49 683.65" stroke="rgba(0, 191, 166, 0.43)" stroke-width="1.5"></path><path d="M499.58 646.05L259.42 657.97" stroke="rgba(0, 191, 166, 0.43)" stroke-width="1.5"></path><path d="M499.58 646.05L709.27 489.7" stroke="rgba(0, 191, 166, 0.43)" stroke-width="1.5"></path><path d="M648.67 238.31L648.67 238.31" stroke="rgba(0, 191, 166, 0.43)" stroke-width="1.5"></path><path d="M648.67 238.31L655.77 355.2" stroke="rgba(0, 191, 166, 0.43)" stroke-width="1.5"></path><path d="M648.67 238.31L789.95 237.98" stroke="rgba(0, 191, 166, 0.43)" stroke-width="1.5"></path><path d="M655.77 355.2L655.77 355.2" stroke="rgba(0, 191, 166, 0.43)" stroke-width="1.5"></path><path d="M655.77 355.2L709.27 489.7" stroke="rgba(0, 191, 166, 0.43)" stroke-width="1.5"></path><path d="M655.77 355.2L789.95 237.98" stroke="rgba(0, 191, 166, 0.43)" stroke-width="1.5"></path><path d="M655.77 355.2L840.6 347.65" stroke="rgba(0, 191, 166, 0.43)" stroke-width="1.5"></path><path d="M655.77 355.2L545.65 522.75" stroke="rgba(0, 191, 166, 0.43)" stroke-width="1.5"></path><path d="M709.27 489.7L709.27 489.7" stroke="rgba(0, 191, 166, 0.43)" stroke-width="1.5"></path><path d="M709.27 489.7L810.55 555.8" stroke="rgba(0, 191, 166, 0.43)" stroke-width="1.5"></path><path d="M706.49 683.65L706.49 683.65" stroke="rgba(0, 191, 166, 0.43)" stroke-width="1.5"></path><path d="M706.49 683.65L843.77 651.74" stroke="rgba(0, 191, 166, 0.43)" stroke-width="1.5"></path><path d="M706.49 683.65L810.55 555.8" stroke="rgba(0, 191, 166, 0.43)" stroke-width="1.5"></path><path d="M706.49 683.65L709.27 489.7" stroke="rgba(0, 191, 166, 0.43)" stroke-width="1.5"></path><path d="M706.49 683.65L545.65 522.75" stroke="rgba(0, 191, 166, 0.43)" stroke-width="1.5"></path><path d="M789.95 237.98L789.95 237.98" stroke="rgba(0, 191, 166, 0.43)" stroke-width="1.5"></path><path d="M789.95 237.98L840.6 347.65" stroke="rgba(0, 191, 166, 0.43)" stroke-width="1.5"></path><path d="M789.95 237.98L992.42 229.11" stroke="rgba(0, 191, 166, 0.43)" stroke-width="1.5"></path><path d="M789.95 237.98L992.99 367.71" stroke="rgba(0, 191, 166, 0.43)" stroke-width="1.5"></path><path d="M789.95 237.98L709.27 489.7" stroke="rgba(0, 191, 166, 0.43)" stroke-width="1.5"></path><path d="M840.6 347.65L840.6 347.65" stroke="rgba(0, 191, 166, 0.43)" stroke-width="1.5"></path><path d="M840.6 347.65L992.99 367.71" stroke="rgba(0, 191, 166, 0.43)" stroke-width="1.5"></path><path d="M840.6 347.65L992.42 229.11" stroke="rgba(0, 191, 166, 0.43)" stroke-width="1.5"></path><path d="M810.55 555.8L810.55 555.8" stroke="rgba(0, 191, 166, 0.43)" stroke-width="1.5"></path><path d="M810.55 555.8L843.77 651.74" stroke="rgba(0, 191, 166, 0.43)" stroke-width="1.5"></path><path d="M843.77 651.74L843.77 651.74" stroke="rgba(0, 191, 166, 0.43)" stroke-width="1.5"></path><path d="M843.77 651.74L941.55 704.58" stroke="rgba(0, 191, 166, 0.43)" stroke-width="1.5"></path><path d="M1009.22 67.85L1009.22 67.85" stroke="rgba(0, 191, 166, 0.43)" stroke-width="1.5"></path><path d="M1009.22 67.85L992.42 229.11" stroke="rgba(0, 191, 166, 0.43)" stroke-width="1.5"></path><path d="M1009.22 67.85L1146.64 -77.63" stroke="rgba(0, 191, 166, 0.43)" stroke-width="1.5"></path><path d="M992.42 229.11L992.42 229.11" stroke="rgba(0, 191, 166, 0.43)" stroke-width="1.5"></path><path d="M992.42 229.11L992.99 367.71" stroke="rgba(0, 191, 166, 0.43)" stroke-width="1.5"></path><path d="M992.42 229.11L1153.48 240.68" stroke="rgba(0, 191, 166, 0.43)" stroke-width="1.5"></path><path d="M992.99 367.71L992.99 367.71" stroke="rgba(0, 191, 166, 0.43)" stroke-width="1.5"></path><path d="M992.99 367.71L966.01 495.42" stroke="rgba(0, 191, 166, 0.43)" stroke-width="1.5"></path><path d="M992.99 367.71L1136.31 376.9" stroke="rgba(0, 191, 166, 0.43)" stroke-width="1.5"></path><path d="M966.01 495.42L966.01 495.42" stroke="rgba(0, 191, 166, 0.43)" stroke-width="1.5"></path><path d="M966.01 495.42L810.55 555.8" stroke="rgba(0, 191, 166, 0.43)" stroke-width="1.5"></path><path d="M966.01 495.42L1137.43 497.05" stroke="rgba(0, 191, 166, 0.43)" stroke-width="1.5"></path><path d="M941.55 704.58L941.55 704.58" stroke="rgba(0, 191, 166, 0.43)" stroke-width="1.5"></path><path d="M941.55 704.58L810.55 555.8" stroke="rgba(0, 191, 166, 0.43)" stroke-width="1.5"></path><path d="M941.55 704.58L966.01 495.42" stroke="rgba(0, 191, 166, 0.43)" stroke-width="1.5"></path><path d="M941.55 704.58L1155.06 652.65" stroke="rgba(0, 191, 166, 0.43)" stroke-width="1.5"></path><path d="M941.55 704.58L706.49 683.65" stroke="rgba(0, 191, 166, 0.43)" stroke-width="1.5"></path><path d="M941.55 704.58L1137.43 497.05" stroke="rgba(0, 191, 166, 0.43)" stroke-width="1.5"></path><path d="M1146.64 -77.63L1146.64 -77.63" stroke="rgba(0, 191, 166, 0.43)" stroke-width="1.5"></path><path d="M1146.64 -77.63L1274.92 -38.28" stroke="rgba(0, 191, 166, 0.43)" stroke-width="1.5"></path><path d="M1146.64 -77.63L1281.34 53.59" stroke="rgba(0, 191, 166, 0.43)" stroke-width="1.5"></path><path d="M1153.48 240.68L1153.48 240.68" stroke="rgba(0, 191, 166, 0.43)" stroke-width="1.5"></path><path d="M1153.48 240.68L1286.14 241.78" stroke="rgba(0, 191, 166, 0.43)" stroke-width="1.5"></path><path d="M1153.48 240.68L1136.31 376.9" stroke="rgba(0, 191, 166, 0.43)" stroke-width="1.5"></path><path d="M1136.31 376.9L1136.31 376.9" stroke="rgba(0, 191, 166, 0.43)" stroke-width="1.5"></path><path d="M1136.31 376.9L1137.43 497.05" stroke="rgba(0, 191, 166, 0.43)" stroke-width="1.5"></path><path d="M1137.43 497.05L1137.43 497.05" stroke="rgba(0, 191, 166, 0.43)" stroke-width="1.5"></path><path d="M1137.43 497.05L1155.06 652.65" stroke="rgba(0, 191, 166, 0.43)" stroke-width="1.5"></path><path d="M1155.06 652.65L1155.06 652.65" stroke="rgba(0, 191, 166, 0.43)" stroke-width="1.5"></path><path d="M1155.06 652.65L1252.59 689.58" stroke="rgba(0, 191, 166, 0.43)" stroke-width="1.5"></path><path d="M1155.06 652.65L1309.13 543.68" stroke="rgba(0, 191, 166, 0.43)" stroke-width="1.5"></path><path d="M1155.06 652.65L966.01 495.42" stroke="rgba(0, 191, 166, 0.43)" stroke-width="1.5"></path><path d="M1274.92 -38.28L1274.92 -38.28" stroke="rgba(0, 191, 166, 0.43)" stroke-width="1.5"></path><path d="M1274.92 -38.28L1281.34 53.59" stroke="rgba(0, 191, 166, 0.43)" stroke-width="1.5"></path><path d="M1281.34 53.59L1281.34 53.59" stroke="rgba(0, 191, 166, 0.43)" stroke-width="1.5"></path><path d="M1281.34 53.59L1416.92 76.22" stroke="rgba(0, 191, 166, 0.43)" stroke-width="1.5"></path><path d="M1286.14 241.78L1286.14 241.78" stroke="rgba(0, 191, 166, 0.43)" stroke-width="1.5"></path><path d="M1286.14 241.78L1409.28 255.73" stroke="rgba(0, 191, 166, 0.43)" stroke-width="1.5"></path><path d="M1286.14 241.78L1289.41 378.18" stroke="rgba(0, 191, 166, 0.43)" stroke-width="1.5"></path><path d="M1286.14 241.78L1281.34 53.59" stroke="rgba(0, 191, 166, 0.43)" stroke-width="1.5"></path><path d="M1286.14 241.78L1136.31 376.9" stroke="rgba(0, 191, 166, 0.43)" stroke-width="1.5"></path><path d="M1289.41 378.18L1289.41 378.18" stroke="rgba(0, 191, 166, 0.43)" stroke-width="1.5"></path><path d="M1289.41 378.18L1409.67 410.38" stroke="rgba(0, 191, 166, 0.43)" stroke-width="1.5"></path><path d="M1289.41 378.18L1136.31 376.9" stroke="rgba(0, 191, 166, 0.43)" stroke-width="1.5"></path><path d="M1309.13 543.68L1309.13 543.68" stroke="rgba(0, 191, 166, 0.43)" stroke-width="1.5"></path><path d="M1309.13 543.68L1421.08 555.98" stroke="rgba(0, 191, 166, 0.43)" stroke-width="1.5"></path><path d="M1309.13 543.68L1404.13 666.68" stroke="rgba(0, 191, 166, 0.43)" stroke-width="1.5"></path><path d="M1309.13 543.68L1252.59 689.58" stroke="rgba(0, 191, 166, 0.43)" stroke-width="1.5"></path><path d="M1309.13 543.68L1289.41 378.18" stroke="rgba(0, 191, 166, 0.43)" stroke-width="1.5"></path><path d="M1252.59 689.58L1252.59 689.58" stroke="rgba(0, 191, 166, 0.43)" stroke-width="1.5"></path><path d="M1252.59 689.58L1404.13 666.68" stroke="rgba(0, 191, 166, 0.43)" stroke-width="1.5"></path><path d="M1428.97 -75.27L1428.97 -75.27" stroke="rgba(0, 191, 166, 0.43)" stroke-width="1.5"></path><path d="M1428.97 -75.27L1416.92 76.22" stroke="rgba(0, 191, 166, 0.43)" stroke-width="1.5"></path><path d="M1428.97 -75.27L1274.92 -38.28" stroke="rgba(0, 191, 166, 0.43)" stroke-width="1.5"></path><path d="M1428.97 -75.27L1607.68 -91.33" stroke="rgba(0, 191, 166, 0.43)" stroke-width="1.5"></path><path d="M1428.97 -75.27L1281.34 53.59" stroke="rgba(0, 191, 166, 0.43)" stroke-width="1.5"></path><path d="M1428.97 -75.27L1541.97 95.21" stroke="rgba(0, 191, 166, 0.43)" stroke-width="1.5"></path><path d="M1428.97 -75.27L1146.64 -77.63" stroke="rgba(0, 191, 166, 0.43)" stroke-width="1.5"></path><path d="M1416.92 76.22L1416.92 76.22" stroke="rgba(0, 191, 166, 0.43)" stroke-width="1.5"></path><path d="M1416.92 76.22L1541.97 95.21" stroke="rgba(0, 191, 166, 0.43)" stroke-width="1.5"></path><path d="M1416.92 76.22L1409.28 255.73" stroke="rgba(0, 191, 166, 0.43)" stroke-width="1.5"></path><path d="M1416.92 76.22L1274.92 -38.28" stroke="rgba(0, 191, 166, 0.43)" stroke-width="1.5"></path><path d="M1416.92 76.22L1286.14 241.78" stroke="rgba(0, 191, 166, 0.43)" stroke-width="1.5"></path><path d="M1409.28 255.73L1409.28 255.73" stroke="rgba(0, 191, 166, 0.43)" stroke-width="1.5"></path><path d="M1409.28 255.73L1559.57 251.79" stroke="rgba(0, 191, 166, 0.43)" stroke-width="1.5"></path><path d="M1409.67 410.38L1409.67 410.38" stroke="rgba(0, 191, 166, 0.43)" stroke-width="1.5"></path><path d="M1409.67 410.38L1421.08 555.98" stroke="rgba(0, 191, 166, 0.43)" stroke-width="1.5"></path><path d="M1409.67 410.38L1409.28 255.73" stroke="rgba(0, 191, 166, 0.43)" stroke-width="1.5"></path><path d="M1409.67 410.38L1309.13 543.68" stroke="rgba(0, 191, 166, 0.43)" stroke-width="1.5"></path><path d="M1421.08 555.98L1421.08 555.98" stroke="rgba(0, 191, 166, 0.43)" stroke-width="1.5"></path><path d="M1421.08 555.98L1404.13 666.68" stroke="rgba(0, 191, 166, 0.43)" stroke-width="1.5"></path><path d="M1421.08 555.98L1566.6 661.4" stroke="rgba(0, 191, 166, 0.43)" stroke-width="1.5"></path><path d="M1404.13 666.68L1404.13 666.68" stroke="rgba(0, 191, 166, 0.43)" stroke-width="1.5"></path><path d="M1607.68 -91.33L1607.68 -91.33" stroke="rgba(0, 191, 166, 0.43)" stroke-width="1.5"></path><path d="M1607.68 -91.33L1541.97 95.21" stroke="rgba(0, 191, 166, 0.43)" stroke-width="1.5"></path><path d="M1607.68 -91.33L1416.92 76.22" stroke="rgba(0, 191, 166, 0.43)" stroke-width="1.5"></path><path d="M1607.68 -91.33L1274.92 -38.28" stroke="rgba(0, 191, 166, 0.43)" stroke-width="1.5"></path><path d="M1607.68 -91.33L1559.57 251.79" stroke="rgba(0, 191, 166, 0.43)" stroke-width="1.5"></path><path d="M1607.68 -91.33L1281.34 53.59" stroke="rgba(0, 191, 166, 0.43)" stroke-width="1.5"></path><path d="M1541.97 95.21L1541.97 95.21" stroke="rgba(0, 191, 166, 0.43)" stroke-width="1.5"></path><path d="M1541.97 95.21L1559.57 251.79" stroke="rgba(0, 191, 166, 0.43)" stroke-width="1.5"></path><path d="M1541.97 95.21L1409.28 255.73" stroke="rgba(0, 191, 166, 0.43)" stroke-width="1.5"></path><path d="M1559.57 251.79L1559.57 251.79" stroke="rgba(0, 191, 166, 0.43)" stroke-width="1.5"></path><path d="M1559.57 251.79L1575.27 379.54" stroke="rgba(0, 191, 166, 0.43)" stroke-width="1.5"></path><path d="M1559.57 251.79L1409.67 410.38" stroke="rgba(0, 191, 166, 0.43)" stroke-width="1.5"></path><path d="M1559.57 251.79L1416.92 76.22" stroke="rgba(0, 191, 166, 0.43)" stroke-width="1.5"></path><path d="M1559.57 251.79L1597.03 488.99" stroke="rgba(0, 191, 166, 0.43)" stroke-width="1.5"></path><path d="M1575.27 379.54L1575.27 379.54" stroke="rgba(0, 191, 166, 0.43)" stroke-width="1.5"></path><path d="M1575.27 379.54L1597.03 488.99" stroke="rgba(0, 191, 166, 0.43)" stroke-width="1.5"></path><path d="M1597.03 488.99L1597.03 488.99" stroke="rgba(0, 191, 166, 0.43)" stroke-width="1.5"></path><path d="M1597.03 488.99L1566.6 661.4" stroke="rgba(0, 191, 166, 0.43)" stroke-width="1.5"></path><path d="M1597.03 488.99L1421.08 555.98" stroke="rgba(0, 191, 166, 0.43)" stroke-width="1.5"></path><path d="M1597.03 488.99L1409.67 410.38" stroke="rgba(0, 191, 166, 0.43)" stroke-width="1.5"></path><path d="M1566.6 661.4L1566.6 661.4" stroke="rgba(0, 191, 166, 0.43)" stroke-width="1.5"></path><path d="M1566.6 661.4L1404.13 666.68" stroke="rgba(0, 191, 166, 0.43)" stroke-width="1.5"></path><circle r="5" cx="-64.91" cy="385.25" fill="rgba(0, 191, 166, 0.43)"></circle><circle r="5" cx="-86.63" cy="671.61" fill="rgba(0, 191, 166, 0.43)"></circle><circle r="5" cx="45.03" cy="372.44" fill="rgba(0, 191, 166, 0.43)"></circle><circle r="5" cx="54.68" cy="550.79" fill="rgba(0, 191, 166, 0.43)"></circle><circle r="5" cx="101.08" cy="656.84" fill="rgba(0, 191, 166, 0.43)"></circle><circle r="5" cx="224.1" cy="390.21" fill="rgba(0, 191, 166, 0.43)"></circle><circle r="5" cx="224.5" cy="510.84" fill="rgba(0, 191, 166, 0.43)"></circle><circle r="5" cx="259.42" cy="657.97" fill="rgba(0, 191, 166, 0.43)"></circle><circle r="5" cx="389.04" cy="377.86" fill="rgba(0, 191, 166, 0.43)"></circle><circle r="5" cx="358.79" cy="514.32" fill="rgba(0, 191, 166, 0.43)"></circle><circle r="5" cx="394.06" cy="688.43" fill="rgba(0, 191, 166, 0.43)"></circle><circle r="5" cx="517.61" cy="344.23" fill="rgba(0, 191, 166, 0.43)"></circle><circle r="5" cx="545.65" cy="522.75" fill="rgba(0, 191, 166, 0.43)"></circle><circle r="5" cx="499.58" cy="646.05" fill="rgba(0, 191, 166, 0.43)"></circle><circle r="5" cx="648.67" cy="238.31" fill="rgba(0, 191, 166, 0.43)"></circle><circle r="5" cx="655.77" cy="355.2" fill="rgba(0, 191, 166, 0.43)"></circle><circle r="5" cx="709.27" cy="489.7" fill="rgba(0, 191, 166, 0.43)"></circle><circle r="5" cx="706.49" cy="683.65" fill="rgba(0, 191, 166, 0.43)"></circle><circle r="5" cx="789.95" cy="237.98" fill="rgba(0, 191, 166, 0.43)"></circle><circle r="5" cx="840.6" cy="347.65" fill="rgba(0, 191, 166, 0.43)"></circle><circle r="5" cx="810.55" cy="555.8" fill="rgba(0, 191, 166, 0.43)"></circle><circle r="5" cx="843.77" cy="651.74" fill="rgba(0, 191, 166, 0.43)"></circle><circle r="5" cx="1009.22" cy="67.85" fill="rgba(0, 191, 166, 0.43)"></circle><circle r="5" cx="992.42" cy="229.11" fill="rgba(0, 191, 166, 0.43)"></circle><circle r="5" cx="992.99" cy="367.71" fill="rgba(0, 191, 166, 0.43)"></circle><circle r="5" cx="966.01" cy="495.42" fill="rgba(0, 191, 166, 0.43)"></circle><circle r="5" cx="941.55" cy="704.58" fill="rgba(0, 191, 166, 0.43)"></circle><circle r="5" cx="1146.64" cy="-77.63" fill="rgba(0, 191, 166, 0.43)"></circle><circle r="5" cx="1153.48" cy="240.68" fill="rgba(0, 191, 166, 0.43)"></circle><circle r="5" cx="1136.31" cy="376.9" fill="rgba(0, 191, 166, 0.43)"></circle><circle r="5" cx="1137.43" cy="497.05" fill="rgba(0, 191, 166, 0.43)"></circle><circle r="5" cx="1155.06" cy="652.65" fill="rgba(0, 191, 166, 0.43)"></circle><circle r="5" cx="1274.92" cy="-38.28" fill="rgba(0, 191, 166, 0.43)"></circle><circle r="5" cx="1281.34" cy="53.59" fill="rgba(0, 191, 166, 0.43)"></circle><circle r="5" cx="1286.14" cy="241.78" fill="rgba(0, 191, 166, 0.43)"></circle><circle r="5" cx="1289.41" cy="378.18" fill="rgba(0, 191, 166, 0.43)"></circle><circle r="5" cx="1309.13" cy="543.68" fill="rgba(0, 191, 166, 0.43)"></circle><circle r="5" cx="1252.59" cy="689.58" fill="rgba(0, 191, 166, 0.43)"></circle><circle r="5" cx="1428.97" cy="-75.27" fill="rgba(0, 191, 166, 0.43)"></circle><circle r="5" cx="1416.92" cy="76.22" fill="rgba(0, 191, 166, 0.43)"></circle><circle r="5" cx="1409.28" cy="255.73" fill="rgba(0, 191, 166, 0.43)"></circle><circle r="5" cx="1409.67" cy="410.38" fill="rgba(0, 191, 166, 0.43)"></circle><circle r="5" cx="1421.08" cy="555.98" fill="rgba(0, 191, 166, 0.43)"></circle><circle r="5" cx="1404.13" cy="666.68" fill="rgba(0, 191, 166, 0.43)"></circle><circle r="5" cx="1607.68" cy="-91.33" fill="rgba(0, 191, 166, 0.43)"></circle><circle r="5" cx="1541.97" cy="95.21" fill="rgba(0, 191, 166, 0.43)"></circle><circle r="5" cx="1559.57" cy="251.79" fill="rgba(0, 191, 166, 0.43)"></circle><circle r="5" cx="1575.27" cy="379.54" fill="rgba(0, 191, 166, 0.43)"></circle><circle r="5" cx="1597.03" cy="488.99" fill="rgba(0, 191, 166, 0.43)"></circle><circle r="5" cx="1566.6" cy="661.4" fill="rgba(0, 191, 166, 0.43)"></circle><path d="M-55.75 637.57L-55.75 637.57" stroke="hsla(172.10000000000002, 100%, 48.7%, 0.32)" stroke-width="1.5"></path><path d="M-55.75 637.57L-94.94 526.71" stroke="hsla(172.10000000000002, 100%, 48.7%, 0.32)" stroke-width="1.5"></path><path d="M-55.75 637.57L80.47 702.23" stroke="hsla(172.10000000000002, 100%, 48.7%, 0.32)" stroke-width="1.5"></path><path d="M-55.75 637.57L106.28 540.57" stroke="hsla(172.10000000000002, 100%, 48.7%, 0.32)" stroke-width="1.5"></path><path d="M-55.75 637.57L197.7 511.46" stroke="hsla(172.10000000000002, 100%, 48.7%, 0.32)" stroke-width="1.5"></path><path d="M-55.75 637.57L409.94 506.39" stroke="hsla(172.10000000000002, 100%, 48.7%, 0.32)" stroke-width="1.5"></path><path d="M409.94 506.39L409.94 506.39" stroke="hsla(172.10000000000002, 100%, 48.7%, 0.32)" stroke-width="1.5"></path><path d="M409.94 506.39L558.2 641.69" stroke="hsla(172.10000000000002, 100%, 48.7%, 0.32)" stroke-width="1.5"></path><path d="M409.94 506.39L197.7 511.46" stroke="hsla(172.10000000000002, 100%, 48.7%, 0.32)" stroke-width="1.5"></path><path d="M409.94 506.39L669.41 509.18" stroke="hsla(172.10000000000002, 100%, 48.7%, 0.32)" stroke-width="1.5"></path><path d="M669.41 509.18L669.41 509.18" stroke="hsla(172.10000000000002, 100%, 48.7%, 0.32)" stroke-width="1.5"></path><path d="M669.41 509.18L705.53 403.46" stroke="hsla(172.10000000000002, 100%, 48.7%, 0.32)" stroke-width="1.5"></path><path d="M669.41 509.18L799.06 530" stroke="hsla(172.10000000000002, 100%, 48.7%, 0.32)" stroke-width="1.5"></path><path d="M799.06 530L799.06 530" stroke="hsla(172.10000000000002, 100%, 48.7%, 0.32)" stroke-width="1.5"></path><path d="M799.06 530L705.53 403.46" stroke="hsla(172.10000000000002, 100%, 48.7%, 0.32)" stroke-width="1.5"></path><path d="M799.06 530L823.42 705.2" stroke="hsla(172.10000000000002, 100%, 48.7%, 0.32)" stroke-width="1.5"></path><path d="M1111.66 535.03L1111.66 535.03" stroke="hsla(172.10000000000002, 100%, 48.7%, 0.32)" stroke-width="1.5"></path><path d="M1111.66 535.03L1003.51 516.11" stroke="hsla(172.10000000000002, 100%, 48.7%, 0.32)" stroke-width="1.5"></path><path d="M1111.66 535.03L1150.45 644.19" stroke="hsla(172.10000000000002, 100%, 48.7%, 0.32)" stroke-width="1.5"></path><path d="M1111.66 535.03L1242.41 531.42" stroke="hsla(172.10000000000002, 100%, 48.7%, 0.32)" stroke-width="1.5"></path><path d="M1111.66 535.03L991.01 655.49" stroke="hsla(172.10000000000002, 100%, 48.7%, 0.32)" stroke-width="1.5"></path><path d="M1150.45 644.19L1150.45 644.19" stroke="hsla(172.10000000000002, 100%, 48.7%, 0.32)" stroke-width="1.5"></path><path d="M1150.45 644.19L1283.51 638.24" stroke="hsla(172.10000000000002, 100%, 48.7%, 0.32)" stroke-width="1.5"></path><path d="M1150.45 644.19L1242.41 531.42" stroke="hsla(172.10000000000002, 100%, 48.7%, 0.32)" stroke-width="1.5"></path><path d="M1150.45 644.19L991.01 655.49" stroke="hsla(172.10000000000002, 100%, 48.7%, 0.32)" stroke-width="1.5"></path><path d="M1150.45 644.19L1003.51 516.11" stroke="hsla(172.10000000000002, 100%, 48.7%, 0.32)" stroke-width="1.5"></path><path d="M1258.39 47.98L1258.39 47.98" stroke="hsla(172.10000000000002, 100%, 48.7%, 0.32)" stroke-width="1.5"></path><path d="M1258.39 47.98L1280.55 -50.43" stroke="hsla(172.10000000000002, 100%, 48.7%, 0.32)" stroke-width="1.5"></path><path d="M1258.39 47.98L1307.73 193.69" stroke="hsla(172.10000000000002, 100%, 48.7%, 0.32)" stroke-width="1.5"></path><path d="M1258.39 47.98L1441.78 70.82" stroke="hsla(172.10000000000002, 100%, 48.7%, 0.32)" stroke-width="1.5"></path><path d="M1278.46 353.06L1278.46 353.06" stroke="hsla(172.10000000000002, 100%, 48.7%, 0.32)" stroke-width="1.5"></path><path d="M1278.46 353.06L1406.98 379.95" stroke="hsla(172.10000000000002, 100%, 48.7%, 0.32)" stroke-width="1.5"></path><path d="M1278.46 353.06L1138.2 338.92" stroke="hsla(172.10000000000002, 100%, 48.7%, 0.32)" stroke-width="1.5"></path><path d="M1278.46 353.06L1307.73 193.69" stroke="hsla(172.10000000000002, 100%, 48.7%, 0.32)" stroke-width="1.5"></path><path d="M1278.46 353.06L1242.41 531.42" stroke="hsla(172.10000000000002, 100%, 48.7%, 0.32)" stroke-width="1.5"></path><path d="M1278.46 353.06L1119.46 238.93" stroke="hsla(172.10000000000002, 100%, 48.7%, 0.32)" stroke-width="1.5"></path><path d="M1283.51 638.24L1283.51 638.24" stroke="hsla(172.10000000000002, 100%, 48.7%, 0.32)" stroke-width="1.5"></path><path d="M1283.51 638.24L1242.41 531.42" stroke="hsla(172.10000000000002, 100%, 48.7%, 0.32)" stroke-width="1.5"></path><path d="M1460.22 202.67L1460.22 202.67" stroke="hsla(172.10000000000002, 100%, 48.7%, 0.32)" stroke-width="1.5"></path><path d="M1460.22 202.67L1566.29 220.87" stroke="hsla(172.10000000000002, 100%, 48.7%, 0.32)" stroke-width="1.5"></path><path d="M1460.22 202.67L1441.78 70.82" stroke="hsla(172.10000000000002, 100%, 48.7%, 0.32)" stroke-width="1.5"></path><path d="M1460.22 202.67L1307.73 193.69" stroke="hsla(172.10000000000002, 100%, 48.7%, 0.32)" stroke-width="1.5"></path><path d="M1460.22 202.67L1564.98 77.23" stroke="hsla(172.10000000000002, 100%, 48.7%, 0.32)" stroke-width="1.5"></path><path d="M1460.22 202.67L1406.98 379.95" stroke="hsla(172.10000000000002, 100%, 48.7%, 0.32)" stroke-width="1.5"></path><path d="M-94.94 526.71L-94.94 526.71" stroke="hsla(172.10000000000002, 100%, 48.7%, 0.32)" stroke-width="1.5"></path><path d="M-94.94 526.71L106.28 540.57" stroke="hsla(172.10000000000002, 100%, 48.7%, 0.32)" stroke-width="1.5"></path><path d="M106.28 540.57L106.28 540.57" stroke="hsla(172.10000000000002, 100%, 48.7%, 0.32)" stroke-width="1.5"></path><path d="M106.28 540.57L197.7 511.46" stroke="hsla(172.10000000000002, 100%, 48.7%, 0.32)" stroke-width="1.5"></path><path d="M106.28 540.57L80.47 702.23" stroke="hsla(172.10000000000002, 100%, 48.7%, 0.32)" stroke-width="1.5"></path><path d="M80.47 702.23L80.47 702.23" stroke="hsla(172.10000000000002, 100%, 48.7%, 0.32)" stroke-width="1.5"></path><path d="M80.47 702.23L197.7 511.46" stroke="hsla(172.10000000000002, 100%, 48.7%, 0.32)" stroke-width="1.5"></path><path d="M80.47 702.23L-94.94 526.71" stroke="hsla(172.10000000000002, 100%, 48.7%, 0.32)" stroke-width="1.5"></path><path d="M80.47 702.23L409.94 506.39" stroke="hsla(172.10000000000002, 100%, 48.7%, 0.32)" stroke-width="1.5"></path><path d="M80.47 702.23L558.2 641.69" stroke="hsla(172.10000000000002, 100%, 48.7%, 0.32)" stroke-width="1.5"></path><path d="M197.7 511.46L197.7 511.46" stroke="hsla(172.10000000000002, 100%, 48.7%, 0.32)" stroke-width="1.5"></path><path d="M197.7 511.46L-94.94 526.71" stroke="hsla(172.10000000000002, 100%, 48.7%, 0.32)" stroke-width="1.5"></path><path d="M197.7 511.46L558.2 641.69" stroke="hsla(172.10000000000002, 100%, 48.7%, 0.32)" stroke-width="1.5"></path><path d="M558.2 641.69L558.2 641.69" stroke="hsla(172.10000000000002, 100%, 48.7%, 0.32)" stroke-width="1.5"></path><path d="M558.2 641.69L665.97 662.55" stroke="hsla(172.10000000000002, 100%, 48.7%, 0.32)" stroke-width="1.5"></path><path d="M558.2 641.69L669.41 509.18" stroke="hsla(172.10000000000002, 100%, 48.7%, 0.32)" stroke-width="1.5"></path><path d="M558.2 641.69L799.06 530" stroke="hsla(172.10000000000002, 100%, 48.7%, 0.32)" stroke-width="1.5"></path><path d="M705.53 403.46L705.53 403.46" stroke="hsla(172.10000000000002, 100%, 48.7%, 0.32)" stroke-width="1.5"></path><path d="M705.53 403.46L832.62 350.25" stroke="hsla(172.10000000000002, 100%, 48.7%, 0.32)" stroke-width="1.5"></path><path d="M665.97 662.55L665.97 662.55" stroke="hsla(172.10000000000002, 100%, 48.7%, 0.32)" stroke-width="1.5"></path><path d="M665.97 662.55L669.41 509.18" stroke="hsla(172.10000000000002, 100%, 48.7%, 0.32)" stroke-width="1.5"></path><path d="M665.97 662.55L823.42 705.2" stroke="hsla(172.10000000000002, 100%, 48.7%, 0.32)" stroke-width="1.5"></path><path d="M665.97 662.55L799.06 530" stroke="hsla(172.10000000000002, 100%, 48.7%, 0.32)" stroke-width="1.5"></path><path d="M665.97 662.55L705.53 403.46" stroke="hsla(172.10000000000002, 100%, 48.7%, 0.32)" stroke-width="1.5"></path><path d="M832.62 350.25L832.62 350.25" stroke="hsla(172.10000000000002, 100%, 48.7%, 0.32)" stroke-width="1.5"></path><path d="M832.62 350.25L964.59 347.5" stroke="hsla(172.10000000000002, 100%, 48.7%, 0.32)" stroke-width="1.5"></path><path d="M832.62 350.25L980.24 253.48" stroke="hsla(172.10000000000002, 100%, 48.7%, 0.32)" stroke-width="1.5"></path><path d="M832.62 350.25L799.06 530" stroke="hsla(172.10000000000002, 100%, 48.7%, 0.32)" stroke-width="1.5"></path><path d="M832.62 350.25L669.41 509.18" stroke="hsla(172.10000000000002, 100%, 48.7%, 0.32)" stroke-width="1.5"></path><path d="M832.62 350.25L1003.51 516.11" stroke="hsla(172.10000000000002, 100%, 48.7%, 0.32)" stroke-width="1.5"></path><path d="M823.42 705.2L823.42 705.2" stroke="hsla(172.10000000000002, 100%, 48.7%, 0.32)" stroke-width="1.5"></path><path d="M823.42 705.2L991.01 655.49" stroke="hsla(172.10000000000002, 100%, 48.7%, 0.32)" stroke-width="1.5"></path><path d="M823.42 705.2L669.41 509.18" stroke="hsla(172.10000000000002, 100%, 48.7%, 0.32)" stroke-width="1.5"></path><path d="M980.24 253.48L980.24 253.48" stroke="hsla(172.10000000000002, 100%, 48.7%, 0.32)" stroke-width="1.5"></path><path d="M980.24 253.48L964.59 347.5" stroke="hsla(172.10000000000002, 100%, 48.7%, 0.32)" stroke-width="1.5"></path><path d="M980.24 253.48L1119.46 238.93" stroke="hsla(172.10000000000002, 100%, 48.7%, 0.32)" stroke-width="1.5"></path><path d="M980.24 253.48L1138.2 338.92" stroke="hsla(172.10000000000002, 100%, 48.7%, 0.32)" stroke-width="1.5"></path><path d="M964.59 347.5L964.59 347.5" stroke="hsla(172.10000000000002, 100%, 48.7%, 0.32)" stroke-width="1.5"></path><path d="M964.59 347.5L1003.51 516.11" stroke="hsla(172.10000000000002, 100%, 48.7%, 0.32)" stroke-width="1.5"></path><path d="M964.59 347.5L1138.2 338.92" stroke="hsla(172.10000000000002, 100%, 48.7%, 0.32)" stroke-width="1.5"></path><path d="M964.59 347.5L1119.46 238.93" stroke="hsla(172.10000000000002, 100%, 48.7%, 0.32)" stroke-width="1.5"></path><path d="M964.59 347.5L1111.66 535.03" stroke="hsla(172.10000000000002, 100%, 48.7%, 0.32)" stroke-width="1.5"></path><path d="M1003.51 516.11L1003.51 516.11" stroke="hsla(172.10000000000002, 100%, 48.7%, 0.32)" stroke-width="1.5"></path><path d="M991.01 655.49L991.01 655.49" stroke="hsla(172.10000000000002, 100%, 48.7%, 0.32)" stroke-width="1.5"></path><path d="M991.01 655.49L1003.51 516.11" stroke="hsla(172.10000000000002, 100%, 48.7%, 0.32)" stroke-width="1.5"></path><path d="M991.01 655.49L799.06 530" stroke="hsla(172.10000000000002, 100%, 48.7%, 0.32)" stroke-width="1.5"></path><path d="M1119.46 238.93L1119.46 238.93" stroke="hsla(172.10000000000002, 100%, 48.7%, 0.32)" stroke-width="1.5"></path><path d="M1119.46 238.93L1138.2 338.92" stroke="hsla(172.10000000000002, 100%, 48.7%, 0.32)" stroke-width="1.5"></path><path d="M1138.2 338.92L1138.2 338.92" stroke="hsla(172.10000000000002, 100%, 48.7%, 0.32)" stroke-width="1.5"></path><path d="M1138.2 338.92L1111.66 535.03" stroke="hsla(172.10000000000002, 100%, 48.7%, 0.32)" stroke-width="1.5"></path><path d="M1138.2 338.92L1242.41 531.42" stroke="hsla(172.10000000000002, 100%, 48.7%, 0.32)" stroke-width="1.5"></path><path d="M1280.55 -50.43L1280.55 -50.43" stroke="hsla(172.10000000000002, 100%, 48.7%, 0.32)" stroke-width="1.5"></path><path d="M1280.55 -50.43L1421.28 -83.79" stroke="hsla(172.10000000000002, 100%, 48.7%, 0.32)" stroke-width="1.5"></path><path d="M1280.55 -50.43L1441.78 70.82" stroke="hsla(172.10000000000002, 100%, 48.7%, 0.32)" stroke-width="1.5"></path><path d="M1280.55 -50.43L1307.73 193.69" stroke="hsla(172.10000000000002, 100%, 48.7%, 0.32)" stroke-width="1.5"></path><path d="M1280.55 -50.43L1559.26 -98.9" stroke="hsla(172.10000000000002, 100%, 48.7%, 0.32)" stroke-width="1.5"></path><path d="M1307.73 193.69L1307.73 193.69" stroke="hsla(172.10000000000002, 100%, 48.7%, 0.32)" stroke-width="1.5"></path><path d="M1242.41 531.42L1242.41 531.42" stroke="hsla(172.10000000000002, 100%, 48.7%, 0.32)" stroke-width="1.5"></path><path d="M1242.41 531.42L1453.34 556.77" stroke="hsla(172.10000000000002, 100%, 48.7%, 0.32)" stroke-width="1.5"></path><path d="M1421.28 -83.79L1421.28 -83.79" stroke="hsla(172.10000000000002, 100%, 48.7%, 0.32)" stroke-width="1.5"></path><path d="M1421.28 -83.79L1559.26 -98.9" stroke="hsla(172.10000000000002, 100%, 48.7%, 0.32)" stroke-width="1.5"></path><path d="M1421.28 -83.79L1441.78 70.82" stroke="hsla(172.10000000000002, 100%, 48.7%, 0.32)" stroke-width="1.5"></path><path d="M1421.28 -83.79L1258.39 47.98" stroke="hsla(172.10000000000002, 100%, 48.7%, 0.32)" stroke-width="1.5"></path><path d="M1421.28 -83.79L1564.98 77.23" stroke="hsla(172.10000000000002, 100%, 48.7%, 0.32)" stroke-width="1.5"></path><path d="M1421.28 -83.79L1460.22 202.67" stroke="hsla(172.10000000000002, 100%, 48.7%, 0.32)" stroke-width="1.5"></path><path d="M1441.78 70.82L1441.78 70.82" stroke="hsla(172.10000000000002, 100%, 48.7%, 0.32)" stroke-width="1.5"></path><path d="M1441.78 70.82L1564.98 77.23" stroke="hsla(172.10000000000002, 100%, 48.7%, 0.32)" stroke-width="1.5"></path><path d="M1441.78 70.82L1307.73 193.69" stroke="hsla(172.10000000000002, 100%, 48.7%, 0.32)" stroke-width="1.5"></path><path d="M1441.78 70.82L1566.29 220.87" stroke="hsla(172.10000000000002, 100%, 48.7%, 0.32)" stroke-width="1.5"></path><path d="M1406.98 379.95L1406.98 379.95" stroke="hsla(172.10000000000002, 100%, 48.7%, 0.32)" stroke-width="1.5"></path><path d="M1406.98 379.95L1541.98 373.34" stroke="hsla(172.10000000000002, 100%, 48.7%, 0.32)" stroke-width="1.5"></path><path d="M1453.34 556.77L1453.34 556.77" stroke="hsla(172.10000000000002, 100%, 48.7%, 0.32)" stroke-width="1.5"></path><path d="M1453.34 556.77L1417.22 696.1" stroke="hsla(172.10000000000002, 100%, 48.7%, 0.32)" stroke-width="1.5"></path><path d="M1453.34 556.77L1596.48 503.42" stroke="hsla(172.10000000000002, 100%, 48.7%, 0.32)" stroke-width="1.5"></path><path d="M1417.22 696.1L1417.22 696.1" stroke="hsla(172.10000000000002, 100%, 48.7%, 0.32)" stroke-width="1.5"></path><path d="M1417.22 696.1L1283.51 638.24" stroke="hsla(172.10000000000002, 100%, 48.7%, 0.32)" stroke-width="1.5"></path><path d="M1417.22 696.1L1579.67 644.69" stroke="hsla(172.10000000000002, 100%, 48.7%, 0.32)" stroke-width="1.5"></path><path d="M1417.22 696.1L1242.41 531.42" stroke="hsla(172.10000000000002, 100%, 48.7%, 0.32)" stroke-width="1.5"></path><path d="M1417.22 696.1L1596.48 503.42" stroke="hsla(172.10000000000002, 100%, 48.7%, 0.32)" stroke-width="1.5"></path><path d="M1559.26 -98.9L1559.26 -98.9" stroke="hsla(172.10000000000002, 100%, 48.7%, 0.32)" stroke-width="1.5"></path><path d="M1559.26 -98.9L1564.98 77.23" stroke="hsla(172.10000000000002, 100%, 48.7%, 0.32)" stroke-width="1.5"></path><path d="M1559.26 -98.9L1441.78 70.82" stroke="hsla(172.10000000000002, 100%, 48.7%, 0.32)" stroke-width="1.5"></path><path d="M1564.98 77.23L1564.98 77.23" stroke="hsla(172.10000000000002, 100%, 48.7%, 0.32)" stroke-width="1.5"></path><path d="M1564.98 77.23L1566.29 220.87" stroke="hsla(172.10000000000002, 100%, 48.7%, 0.32)" stroke-width="1.5"></path><path d="M1564.98 77.23L1307.73 193.69" stroke="hsla(172.10000000000002, 100%, 48.7%, 0.32)" stroke-width="1.5"></path><path d="M1566.29 220.87L1566.29 220.87" stroke="hsla(172.10000000000002, 100%, 48.7%, 0.32)" stroke-width="1.5"></path><path d="M1566.29 220.87L1541.98 373.34" stroke="hsla(172.10000000000002, 100%, 48.7%, 0.32)" stroke-width="1.5"></path><path d="M1541.98 373.34L1541.98 373.34" stroke="hsla(172.10000000000002, 100%, 48.7%, 0.32)" stroke-width="1.5"></path><path d="M1541.98 373.34L1596.48 503.42" stroke="hsla(172.10000000000002, 100%, 48.7%, 0.32)" stroke-width="1.5"></path><path d="M1541.98 373.34L1460.22 202.67" stroke="hsla(172.10000000000002, 100%, 48.7%, 0.32)" stroke-width="1.5"></path><path d="M1541.98 373.34L1453.34 556.77" stroke="hsla(172.10000000000002, 100%, 48.7%, 0.32)" stroke-width="1.5"></path><path d="M1541.98 373.34L1278.46 353.06" stroke="hsla(172.10000000000002, 100%, 48.7%, 0.32)" stroke-width="1.5"></path><path d="M1596.48 503.42L1596.48 503.42" stroke="hsla(172.10000000000002, 100%, 48.7%, 0.32)" stroke-width="1.5"></path><path d="M1596.48 503.42L1579.67 644.69" stroke="hsla(172.10000000000002, 100%, 48.7%, 0.32)" stroke-width="1.5"></path><path d="M1596.48 503.42L1406.98 379.95" stroke="hsla(172.10000000000002, 100%, 48.7%, 0.32)" stroke-width="1.5"></path><path d="M1579.67 644.69L1579.67 644.69" stroke="hsla(172.10000000000002, 100%, 48.7%, 0.32)" stroke-width="1.5"></path><path d="M1579.67 644.69L1453.34 556.77" stroke="hsla(172.10000000000002, 100%, 48.7%, 0.32)" stroke-width="1.5"></path><circle r="25" cx="-55.75" cy="637.57" fill="url(#SvgjsRadialGradient1017)"></circle><circle r="25" cx="409.94" cy="506.39" fill="url(#SvgjsRadialGradient1017)"></circle><circle r="25" cx="669.41" cy="509.18" fill="url(#SvgjsRadialGradient1017)"></circle><circle r="25" cx="799.06" cy="530" fill="url(#SvgjsRadialGradient1017)"></circle><circle r="25" cx="1111.66" cy="535.03" fill="url(#SvgjsRadialGradient1017)"></circle><circle r="25" cx="1150.45" cy="644.19" fill="url(#SvgjsRadialGradient1017)"></circle><circle r="25" cx="1258.39" cy="47.98" fill="url(#SvgjsRadialGradient1017)"></circle><circle r="25" cx="1278.46" cy="353.06" fill="url(#SvgjsRadialGradient1017)"></circle><circle r="25" cx="1283.51" cy="638.24" fill="url(#SvgjsRadialGradient1017)"></circle><circle r="25" cx="1460.22" cy="202.67" fill="url(#SvgjsRadialGradient1017)"></circle><circle r="5" cx="-94.94" cy="526.71" fill="rgba(214, 245, 241, 0.66)"></circle><circle r="5" cx="106.28" cy="540.57" fill="rgba(214, 245, 241, 0.66)"></circle><circle r="5" cx="80.47" cy="702.23" fill="rgba(214, 245, 241, 0.66)"></circle><circle r="5" cx="197.7" cy="511.46" fill="rgba(214, 245, 241, 0.66)"></circle><circle r="5" cx="558.2" cy="641.69" fill="rgba(214, 245, 241, 0.66)"></circle><circle r="5" cx="705.53" cy="403.46" fill="rgba(214, 245, 241, 0.66)"></circle><circle r="5" cx="665.97" cy="662.55" fill="rgba(214, 245, 241, 0.66)"></circle><circle r="5" cx="832.62" cy="350.25" fill="rgba(214, 245, 241, 0.66)"></circle><circle r="5" cx="823.42" cy="705.2" fill="rgba(214, 245, 241, 0.66)"></circle><circle r="5" cx="980.24" cy="253.48" fill="rgba(214, 245, 241, 0.66)"></circle><circle r="5" cx="964.59" cy="347.5" fill="rgba(214, 245, 241, 0.66)"></circle><circle r="5" cx="1003.51" cy="516.11" fill="rgba(214, 245, 241, 0.66)"></circle><circle r="5" cx="991.01" cy="655.49" fill="rgba(214, 245, 241, 0.66)"></circle><circle r="5" cx="1119.46" cy="238.93" fill="rgba(214, 245, 241, 0.66)"></circle><circle r="5" cx="1138.2" cy="338.92" fill="rgba(214, 245, 241, 0.66)"></circle><circle r="5" cx="1280.55" cy="-50.43" fill="rgba(214, 245, 241, 0.66)"></circle><circle r="5" cx="1307.73" cy="193.69" fill="rgba(214, 245, 241, 0.66)"></circle><circle r="5" cx="1242.41" cy="531.42" fill="rgba(214, 245, 241, 0.66)"></circle><circle r="5" cx="1421.28" cy="-83.79" fill="rgba(214, 245, 241, 0.66)"></circle><circle r="5" cx="1441.78" cy="70.82" fill="rgba(214, 245, 241, 0.66)"></circle><circle r="5" cx="1406.98" cy="379.95" fill="rgba(214, 245, 241, 0.66)"></circle><circle r="5" cx="1453.34" cy="556.77" fill="rgba(214, 245, 241, 0.66)"></circle><circle r="5" cx="1417.22" cy="696.1" fill="rgba(214, 245, 241, 0.66)"></circle><circle r="5" cx="1559.26" cy="-98.9" fill="rgba(214, 245, 241, 0.66)"></circle><circle r="5" cx="1564.98" cy="77.23" fill="rgba(214, 245, 241, 0.66)"></circle><circle r="5" cx="1566.29" cy="220.87" fill="rgba(214, 245, 241, 0.66)"></circle><circle r="5" cx="1541.98" cy="373.34" fill="rgba(214, 245, 241, 0.66)"></circle><circle r="5" cx="1596.48" cy="503.42" fill="rgba(214, 245, 241, 0.66)"></circle><circle r="5" cx="1579.67" cy="644.69" fill="rgba(214, 245, 241, 0.66)"></circle></g><defs><mask id="SvgjsMask1016"><rect width="1440" height="560" fill="#ffffff"></rect></mask><radialGradient id="SvgjsRadialGradient1017"><stop stop-color="#ffffff" offset="0.1"></stop><stop stop-color="rgba(0, 191, 166, 0.32)" offset="0.2"></stop><stop stop-color="rgba(0, 191, 166, 0)" offset="1"></stop></radialGradient></defs></svg>