<?xml version="1.0" encoding="utf-8"?>
<!-- Generator: Adobe Illustrator 25.2.0, SVG Export Plug-In . SVG Version: 6.00 Build 0)  -->
<svg version="1.1" id="b944483d-564a-4430-a20f-83b53d0ebb22"
	 xmlns="http://www.w3.org/2000/svg" xmlns:xlink="http://www.w3.org/1999/xlink" x="0px" y="0px" viewBox="0 0 972 639.9"
	 style="enable-background:new 0 0 972 639.9;" xml:space="preserve">
<style type="text/css">
	.st0{fill:#FFB8B8;}
	.st1{fill:#00BFA6;}
	.st2{fill:#2F2E41;}
	.st3{fill:#3F3D56;}
	.st4{fill:#CCCCCC;}
</style>
<path class="st0" d="M378.8,316.7c-0.1-0.4-0.2-0.8-0.4-1.2c-2-5.4-8-8.2-13.5-6.2c-5.4,2-8.2,8-6.2,13.5c2,5.4,8,8.2,13.5,6.2
	l49,38.7l22.3-15.9l-11.1-14.6l-10.4,6l-43-24.8C379,317.8,379,317.2,378.8,316.7L378.8,316.7z"/>
<path class="st1" d="M476.7,331.9c6-4.3,7.4-12.6,3.1-18.6l0,0c-0.1-0.2-0.3-0.4-0.5-0.6c-4.6-5.7-13-6.7-18.7-2.1L427.7,337
	l15.1,19L476.7,331.9L476.7,331.9z"/>
<polygon class="st0" points="534.5,561.2 517,565.8 534.6,610.1 546.5,607 "/>
<path class="st2" d="M514.7,627.1L514.7,627.1c-2.1-8,2.7-16.1,10.6-18.2l22.9-6l0,0l3.8,14.4l0,0L514.7,627.1L514.7,627.1z"/>
<polygon class="st0" points="449.4,568.8 431.6,565.7 429,613.2 441.1,615.4 "/>
<path class="st2" d="M403.7,620.3L403.7,620.3c1.4-8.1,9.2-13.5,17.3-12l23.3,4.2l0,0l-2.6,14.7l0,0L403.7,620.3L403.7,620.3z"/>
<path class="st2" d="M464.5,265.7c2.3-3.2,6.7-4.1,10.1-2.1c3.3,1.9,5.8,5.7,7.7,9.8c3.5,7.9,4.5,16.6,2.9,25.1
	c-1.7,8.4-6.8,15.7-13.2,17.6s-13.8-2.2-16.5-10.1c-2.4-6.7-1.3-14.6-0.1-21.8c0.5-3.9,1.4-7.7,2.7-11.4c1.5-3.5,3.9-6.5,6.8-7.3"/>
<path class="st2" d="M498.9,398.4c21.1,4.5,49.6,200.8,49.6,200.8l-20.8-1.2L479,471.9l-35,138l-19-7.2l23-205.8L498.9,398.4z"/>
<circle class="st0" cx="467.3" cy="267.2" r="24.6"/>
<path class="st1" d="M447,402.9l55.3-1c0,0-4-11-2.9-46.7s-16.2-56.5-16.2-56.5l-26.5,3.5C421.5,328.7,455,391.9,447,402.9z"/>
<path class="st0" d="M442.5,407.9c-0.4,0-0.9,0-1.3,0.1c-5.8,0.7-9.8,6-9.1,11.7c0.7,5.8,6,9.8,11.7,9.1s9.8-6,9.1-11.7l48.9-38.9
	l-10.4-25.4l-16.7,7.5l3.5,11.5l-34,36.1C443.6,407.9,443.1,407.9,442.5,407.9L442.5,407.9z"/>
<path class="st1" d="M479.7,316.1c-2.8-6.8-10.6-10.1-17.4-7.3l0,0c-0.2,0.1-0.5,0.2-0.7,0.3c-6.6,3.2-9.5,11.1-6.3,17.8l18.2,38
	l21.9-10.4L479.7,316.1L479.7,316.1z"/>
<path class="st2" d="M476.5,290.1c-3.6,5.7-7.3,11.5-8.7,18s-0.2,14.1,4.8,18.6c3.9,3.5,9.4,4.7,14.6,4.1s10-2.9,14.5-5.5
	c5.7-3.3,11.5-8.4,11.3-15c-0.2-8.4-9.8-13.6-12-21.7c-1.2-4.3,0.6-8.6,1.9-18.5c2-16-9.2-30.7-25.2-33c-7.8-1.1-15.6,0.9-23.2,2.9
	c-3.4,0.9-6.9,1.8-9.7,4s-4.7,5.8-3.8,9.1c1.4,5.1,7.8,6.7,13.1,6.8s11.5,0.2,14.6,4.5c2.6,3.6,1.7,8.5,1.2,12.9s-0.1,9.8,3.7,12"/>
<path class="st3" d="M0,305.9v228c0,5,4,9,9,9h355c5,0,9-4,9-9v-228c0-5-4-9-9-9H9C4,296.9,0,300.9,0,305.9z M2,305.9
	c0-3.9,3.1-7,7-7h355c3.9,0,7,3.1,7,7v228c0,3.9-3.1,7-7,7H9c-3.9,0-7-3.1-7-7V305.9z"/>
<path class="st1" d="M279.7,401.9v-56c0-4.7,3.8-8.5,8.5-8.5h56c4.7,0,8.5,3.8,8.5,8.5v56c0,4.7-3.8,8.5-8.5,8.5h-56
	C283.5,410.4,279.7,406.6,279.7,401.9z"/>
<path class="st4" d="M21,463.4c0-3.6,2.9-6.5,6.5-6.5h318c3.6,0,6.5,2.9,6.5,6.5s-2.9,6.5-6.5,6.5h-318C23.9,469.9,21,467,21,463.4z
	"/>
<path class="st4" d="M20.8,431.9c0-3.6,2.9-6.5,6.5-6.5h318c3.6,0,6.5,2.9,6.5,6.5s-2.9,6.5-6.5,6.5h-318
	C23.7,438.4,20.8,435.5,20.8,431.9z"/>
<path class="st4" d="M177.8,388.9c0-3.6,2.9-6.5,6.5-6.5h47c3.6,0,6.5,2.9,6.5,6.5s-2.9,6.5-6.5,6.5h-47
	C180.7,395.4,177.8,392.5,177.8,388.9z"/>
<path class="st4" d="M20.8,356.9c0-3.6,2.9-6.5,6.5-6.5h204c3.6,0,6.5,2.9,6.5,6.5s-2.9,6.5-6.5,6.5h-204
	C23.7,363.4,20.8,360.5,20.8,356.9z"/>
<path class="st4" d="M185.8,495.4c0-3.6,2.9-6.5,6.5-6.5h153.2c3.6,0,6.5,2.9,6.5,6.5s-2.9,6.5-6.5,6.5H192.3
	C188.7,501.9,185.8,499,185.8,495.4z"/>
</svg>
